# xmcd
#
# Track frame offsets:
#   150
#   11850
#   23063
#   32825
#   48275
#   61088
#   72088
#   83950
#   95425
#   105913
#   116525
#
# Disc length: 1727 seconds
#
# Revision: 0
# Processed by: cddbd v1.5PL3 Copyright (c) Steve Scherf et al.
# Submitted via: Media_Universe 3.0
#
DISCID=8006bd0b
DTITLE=Various Artist - The Very Best Of Country and Western Vol:2
DYEAR=1900
DGENRE=Country
TTITLE0=I'm Gonna Lose A Lot Of Teardrops
TTITLE1=Once A Day
TTITLE2=Back In My Baby's Arms Again
TTITLE3=There Goes My Everything
TTITLE4=Top Of The World
TTITLE5=Heaven's Just A Sin Away
TTITLE6=Makin' Believe
TTITLE7=Have I Been Away Too Long
TTITLE8=Pick Me Up On Your Way Down
TTITLE9=Burning Memories
TTITLE10=Ruby ( Don't Take Your Love To Town)
EXTD=
EXTT0=
EXTT1=
EXTT2=
EXTT3=
EXTT4=
EXTT5=
EXTT6=
EXTT7=
EXTT8=
EXTT9=
EXTT10=
PLAYORDER=
